# xmcd
#
# Track frame offsets: 
#        150
#        15250
#        30410
#        43045
#        58907
#        72612
#        86047
#        101857
#        121910
#        138127
#        153872
#        171635
#        191830
#
# Disc length: 2795 seconds
#
# Revision: 3
# Processed by: cddbd v1.5.2PL0 Copyright (c) Steve Scherf et al.
# Submitted via: ExactAudioCopy v1.0b6
#
DISCID=b30ae90d
DTITLE=B.B. King - Reflections
DYEAR=2003
DGENRE=Blues
TTITLE0=Exactly Like You
TTITLE1=On My Word Of Honor
TTITLE2=I Want A Little Girl
TTITLE3=I'll String Along With You
TTITLE4=I Need You
TTITLE5=A Mother's Love
TTITLE6=(I Love You) For Sentimental Reasons
TTITLE7=Neighborhood Affair
TTITLE8=Tomorrow Night
TTITLE9=There I've Said It Again
TTITLE10=Always On My Mind
TTITLE11=Cross My Heart
TTITLE12=What A Wonderful World
EXTD=
EXTT0=
EXTT1=
EXTT2=
EXTT3=
EXTT4=
EXTT5=
EXTT6=
EXTT7=
EXTT8=
EXTT9=
EXTT10=
EXTT11=
EXTT12=
PLAYORDER=
